. 
 
http://www.torrenting.com          :     Once & For all ;)


               www . Torrenting . Com 

(((((((((((((= Enjoy No RAR releases =))))))))))))))))))))


...................................NFO:....................................

.                                                                                                     
       
     
     
       
       
     
     
                                         
                                         
                EXVID                    
                                         
         
                                         
         Filled the Archives             
                                         
         
                                         
                With:                    
                                         
         
                                         
                                    
     E240                           
                                    
     SP               (C) 2009      
                                         
     
     
     
                                                                                  
                                                                                   
   		Battle.Cry.1955.iNTERNAL.DVDRip.XviD-EXViDiNT                            
                                                                                   
                                                                                  
     
                                                                                               
EXViD aims to iNTERNAL those releases which have been lost in the archives.
EXViD aims to PRE non-internal releases which have poor sources and are likely skipped by others. 
http://www.imdb.com/title/tt0047860/
Subtitles: EN FR ES PT CH TH KO
Date: 2011.12

Director: Raoul Walsh

Genres:
Drama | Romance | War

Plot:
A group of young Marines have adventures in love and war.  

Cast:
Van Heflin 		... 	Major Sam Huxley (CO, 2nd Bn., 6th Marine Regt.)
Aldo Ray 		... 	Pvt. / Pfc Andy Hookens
Mona Freeman 		... 	Kathy, later: Mrs. Danny Forrester
Nancy Olson 		... 	Mrs. Pat Rogers
James Whitmore 		... 	MSgt. Mac / Narrator
Raymond Massey 		... 	Maj. Gen. Snipes
Tab Hunter 		... 	Pvt. / Cpl. Dan 'Danny' Forrester
Dorothy Malone 		... 	Mrs. Elaine Yarborough (USO manager in San Diego)
Anne Francis 		... 	Rae
William Campbell 	... 	Pvt. 'Ski' Wronski
John Lupton 		... 	Pvt. / Cpl. Marion 'Sister Mary' Hotchkiss
L.Q. Jones 		... 	Pvt. L.Q. Jones (as Justus E. McQueen)
Perry Lopez 		... 	Pvt. Joe Gomez aka Spanish Joe
Fess Parker 		... 	Pvt. Speedy
Jonas Applegarth 	... 	Pvt. Lighttower (Navajo Phonetalker) 


Stats:
Format                           : AVI
Format/Info                      : Audio Video Interleave
File size                        : 1.37 GiB
Duration                         : 2h 28mn
Overall bit rate mode            : Variable
Overall bit rate                 : 1 318 Kbps
Writing application              : VirtualDubMod 1.5.10.2 (build 2540/release)
Writing library                  : VirtualDubMod build 2540/release

Video
ID                               : 0
Format                           : MPEG-4 Visual
Format profile                   : Advanced Simple@L5
Format settings, BVOP            : 2
Format settings, QPel            : No
Format settings, GMC             : No warppoints
Format settings, Matrix          : Default (H.263)
Codec ID                         : XVID
Codec ID/Hint                    : XviD
Duration                         : 2h 28mn
Bit rate                         : 1 234 Kbps
Width                            : 640 pixels
Height                           : 256 pixels
Display aspect ratio             : 2.500
Frame rate                       : 23.976 fps
Color space                      : YUV
Chroma subsampling               : 4:2:0
Bit depth                        : 8 bits
Scan type                        : Progressive
Bits/(Pixel*Frame)               : 0.314
Stream size                      : 1.28 GiB (94%)
Writing library                  : XviD 64

Audio
ID                               : 1
Format                           : MPEG Audio
Format version                   : Version 1
Format profile                   : Layer 3
Codec ID                         : 55
Codec ID/Hint                    : MP3
Duration                         : 2h 28mn
Bit rate mode                    : Variable
Bit rate                         : 71.4 Kbps
Minimum bit rate                 : 32.0 Kbps
Channel(s)                       : 1 channel
Sampling rate                    : 48.0 KHz
Stream size                      : 75.9 MiB (5%)
Alignment                        : Aligned on interleaves
Interleave, duration             : 24 ms (0.58 video frame)
Interleave, preload duration     : 258 ms
Writing library                  : LAME3.95 
Encoding settings                : -m m -V 4 -q 3 -lowpass 18 --vbr-old -b 32




Release notes:
enjoy!

Looking for:
75TB+ Archives
DUTCH/FLEMiSH Archives
                                                                                                    
Greets: CRBS EPiSODE FiCO FLS iLS KLASSiGER LiPSYNC MADE NODLABS RUNNER SPRiNTER      
   

                                                                    ASCII DONE BY XX^NFO 2oo9